<svg width="93" height="93" viewBox="0 0 93 93" fill="none" xmlns="http://www.w3.org/2000/svg">
<path d="M46.5071 5.45587e-07C37.3103 -0.00140796 28.3196 2.72439 20.6719 7.83271C13.0243 12.941 7.06312 20.2024 3.54235 28.6986C0.0215739 37.1949 -0.900715 46.5443 0.892116 55.5647C2.68495 64.5851 7.11238 72.8713 13.6145 79.3754C20.1167 85.8795 28.4015 90.3095 37.4213 92.1051C46.4412 93.9007 55.7909 92.9813 64.2882 89.4631C72.7855 85.9449 80.0487 79.986 85.1594 72.3399C90.27 64.6938 92.9986 55.7039 93 46.5071C93.0009 34.1748 88.1034 22.3472 79.3845 13.6256C70.6656 4.90404 58.8394 0.00283356 46.5071 5.45587e-07Z" fill="url(#paint0_linear_3_131)"/>
<path d="M46.5071 4.79666C38.2563 4.79596 30.1905 7.24211 23.33 11.8257C16.4695 16.4094 11.1224 22.9246 7.9649 30.5474C4.80744 38.1702 3.98148 46.5581 5.59148 54.6504C7.20149 62.7426 11.1751 70.1756 17.0099 76.0094C22.8446 81.8431 30.2783 85.8155 38.3708 87.4241C46.4633 89.0327 54.8511 88.2053 62.4734 85.0466C70.0956 81.8878 76.6099 76.5396 81.1924 69.6782C85.7749 62.8169 88.2196 54.7508 88.2175 46.4999C88.2171 41.0229 87.1378 35.5996 85.0414 30.5397C82.945 25.4798 79.8725 20.8823 75.9994 17.0098C72.1262 13.1373 67.5282 10.0656 62.4679 7.97004C57.4076 5.87451 51.9841 4.79619 46.5071 4.79666Z" fill="url(#paint1_radial_3_131)"/>
<g style="mix-blend-mode:multiply">
<path d="M46.5071 4.79666C38.2563 4.79596 30.1905 7.24211 23.33 11.8257C16.4695 16.4094 11.1224 22.9246 7.9649 30.5474C4.80744 38.1702 3.98148 46.5581 5.59148 54.6504C7.20149 62.7426 11.1751 70.1756 17.0099 76.0094C22.8446 81.8431 30.2783 85.8155 38.3708 87.4241C46.4633 89.0327 54.8512 88.2053 62.4734 85.0466C70.0956 81.8878 76.6099 76.5395 81.1924 69.6782C85.7749 62.8169 88.2196 54.7508 88.2175 46.4999C88.2171 41.0229 87.1378 35.5996 85.0414 30.5397C82.945 25.4798 79.8725 20.8823 75.9994 17.0098C72.1262 13.1373 67.5282 10.0656 62.4679 7.97004C57.4076 5.87451 51.9842 4.79619 46.5071 4.79666Z" fill="#95EF7F"/>
</g>
<path d="M14.5825 34.1004L32.2666 55.0358L64.5723 32.06L35.2365 58.5541L53.5402 80.223L74.6464 23.6595L14.5825 34.1004Z" fill="#F8F8F8"/>
<defs>
<linearGradient id="paint0_linear_3_131" x1="13.6263" y1="13.621" x2="79.3844" y2="79.3772" gradientUnits="userSpaceOnUse">
<stop stop-color="#7CE9FB"/>
<stop offset="0.14" stop-color="#35AB96"/>
<stop offset="0.34" stop-color="#49AAC7"/>
<stop offset="0.505208" stop-color="#4093B8"/>
<stop offset="0.58" stop-color="#D2EEFD"/>
<stop offset="0.86" stop-color="#47B6A2"/>
<stop offset="1" stop-color="#ACE8DD"/>
</linearGradient>
<radialGradient id="paint1_radial_3_131" cx="0" cy="0" r="1" gradientUnits="userSpaceOnUse" gradientTransform="translate(90.7851 -1.31586) rotate(-90) scale(154.533)">
<stop stop-color="#53C6D9"/>
<stop offset="0.14" stop-color="#50BFD4"/>
<stop offset="0.34" stop-color="#49AAC7"/>
<stop offset="0.58" stop-color="#3C88B1"/>
<stop offset="0.86" stop-color="#2C5A94"/>
<stop offset="1" stop-color="#224083"/>
</radialGradient>
</defs>
</svg>
