<svg width="18" height="18" viewBox="0 0 18 18" fill="none" xmlns="http://www.w3.org/2000/svg">
<path fill-rule="evenodd" clip-rule="evenodd" d="M13.6108 17.9449C14.2867 18.0268 15.2469 18.0359 15.7197 17.8425C15.8707 17.802 16.902 17.3841 17.1086 17.3095C17.4929 17.1547 18.1793 16.975 17.9565 16.4311C17.8691 16.2404 15.7521 13.7238 15.5223 13.4316C15.3487 13.2259 14.8279 12.5764 14.6774 12.4407C14.5136 12.3042 14.1693 12.2004 13.8434 12.2546C13.1449 12.3666 12.1072 13.0807 11.4434 13.1321C9.47575 13.281 5.50159 7.47868 5.28688 6.79322C4.83027 5.3513 6.81126 5.60118 7.71756 4.85382C7.81248 4.77708 7.87693 4.68026 7.90304 4.57518C7.92914 4.47011 7.91577 4.36132 7.86456 4.26213C7.74881 4.05549 5.31119 1.1325 4.96164 0.711944C4.71973 0.406992 4.44078 -0.0918537 3.70984 0.0146518C3.48298 0.0410506 3.17972 0.187154 3.0061 0.255882C-5.77848 3.73005 6.82052 17.117 13.6108 17.9449Z" fill="#231F20"/>
</svg>
