<svg width="228" height="203" viewBox="0 0 228 203" fill="none" xmlns="http://www.w3.org/2000/svg">
<path opacity="0.9" d="M130.231 0C76.2171 0 32.5714 45.4494 32.5714 101.5H0L42.2886 145.427L43.0486 147.062L86.8571 101.5H54.2857C54.2857 57.9114 88.3229 22.5556 130.286 22.5556C172.249 22.5556 206.286 57.9114 206.286 101.5C206.286 145.089 172.249 180.444 130.286 180.444C109.277 180.444 90.3314 171.535 76.5971 157.269L61.2343 173.227C78.8771 191.609 103.251 203 130.231 203C184.246 203 228 157.551 228 101.5C228 45.4494 184.246 0 130.231 0ZM119.429 56.3889V112.778L165.897 141.423L173.714 127.721L135.714 104.319V56.3889H119.429Z" fill="#F4F4F4"/>
</svg>
