<svg width="21" height="25" viewBox="0 0 21 25" fill="none" xmlns="http://www.w3.org/2000/svg">
<path d="M21 6.14599V4.81859H19.533C19.4576 4.11249 18.932 3.56125 18.2991 3.56125H15.7197V2.9971C15.7197 1.34461 14.7943 0 13.6559 0H6.85822C5.72042 0 4.795 1.34461 4.795 2.9971V3.56125H2.33669C1.70373 3.56125 1.17814 4.11433 1.1028 4.81859H0V6.14599H21ZM6.00873 2.99772C6.00873 2.31742 6.39017 1.76372 6.85822 1.76372H13.6559C14.1246 1.76372 14.506 2.31681 14.506 2.99772V3.56186H6.00873V2.99772Z" fill="#231F20"/>
<path d="M0 6.98358V7.75175H0.059322V8.38288H1.06246L3.56941 25H17.2384L19.8717 8.38288H20.9988V6.98358H0ZM7.58254 21.4762C7.58254 22.1854 7.08898 22.7668 6.48687 22.7668H6.39551C5.7928 22.7668 5.29983 22.1866 5.29983 21.4762V10.0882C5.29983 9.37966 5.7928 8.7977 6.39551 8.7977H6.48687C7.08898 8.7977 7.58254 9.37782 7.58254 10.0882V21.4762ZM11.5992 21.4762C11.5992 22.1854 11.1063 22.7668 10.5042 22.7668H10.4128C9.81009 22.7668 9.31712 22.1866 9.31712 21.4762V10.0882C9.31712 9.37966 9.81009 8.7977 10.4128 8.7977H10.5042C11.1063 8.7977 11.5992 9.37782 11.5992 10.0882V21.4762ZM15.7079 21.4762C15.7079 22.1854 15.2149 22.7668 14.6122 22.7668H14.5208C13.9187 22.7668 13.4258 22.1866 13.4258 21.4762V10.0882C13.4258 9.37966 13.9187 8.7977 14.5208 8.7977H14.6122C15.2149 8.7977 15.7079 9.37782 15.7079 10.0882V21.4762Z" fill="#231F20"/>
</svg>
