<svg width="26" height="26" viewBox="0 0 26 26" fill="none" xmlns="http://www.w3.org/2000/svg">
<path d="M2 6.12501V4.75001C2 4.02066 2.28973 3.32118 2.80545 2.80546C3.32118 2.28973 4.02065 2 4.75 2H21.25C21.9793 2 22.6788 2.28973 23.1945 2.80546C23.7103 3.32118 24 4.02066 24 4.75001V21.25C24 21.9794 23.7103 22.6789 23.1945 23.1946C22.6788 23.7103 21.9793 24 21.25 24H4.75C4.02065 24 3.32118 23.7103 2.80545 23.1946C2.28973 22.6789 2 21.9794 2 21.25V19.875" stroke="#25D366" stroke-width="3" stroke-linecap="round" stroke-linejoin="round"/>
<path d="M2.00307 13.0039H15.7531" stroke="#25D366" stroke-width="3" stroke-linecap="round" stroke-linejoin="round"/>
<path d="M11.625 7.5L16.6781 12.0272C16.8188 12.1473 16.9318 12.2964 17.0093 12.4643C17.0868 12.6323 17.1269 12.8151 17.1269 13C17.1269 13.185 17.0868 13.3677 17.0093 13.5357C16.9318 13.7036 16.8188 13.8528 16.6781 13.9728L11.625 18.5" stroke="#25D366" stroke-width="3" stroke-linecap="round" stroke-linejoin="round"/>
</svg>
