<svg width="32" height="26" viewBox="0 0 32 26" fill="none" xmlns="http://www.w3.org/2000/svg">
<path opacity="0.9" d="M18.2781 0C10.6971 0 4.57143 5.82111 4.57143 13H0L5.93524 18.6261L6.0419 18.8356L12.1905 13H7.61905C7.61905 7.41722 12.3962 2.88889 18.2857 2.88889C24.1752 2.88889 28.9524 7.41722 28.9524 13C28.9524 18.5828 24.1752 23.1111 18.2857 23.1111C15.3371 23.1111 12.6781 21.97 10.7505 20.1428L8.59429 22.1867C11.0705 24.5411 14.4914 26 18.2781 26C25.859 26 32 20.1789 32 13C32 5.82111 25.859 0 18.2781 0ZM16.7619 7.22222V14.4444L23.2838 18.1133L24.381 16.3583L19.0476 13.3611V7.22222H16.7619Z" fill="black"/>
</svg>
