<svg width="32" height="26" viewBox="0 0 32 26" fill="none" xmlns="http://www.w3.org/2000/svg">
<path d="M27.1821 25.9981H19.3858V18.9326C19.382 18.5585 19.237 18.2012 18.9825 17.9385C18.728 17.6758 18.3846 17.5292 18.0273 17.5304H14.0374C13.6794 17.5281 13.335 17.6744 13.0798 17.9372C12.8245 18.1999 12.679 18.5579 12.6751 18.9326V26H4.75469V15.3827L16.0305 5.81204L27.1821 15.3703V25.9981ZM31.581 15.7316L31.4897 15.8425C31.1872 16.1924 30.7663 16.4053 30.3164 16.436C29.8664 16.4667 29.4228 16.3128 29.0794 16.0069L27.1848 14.3017L16.0305 4.66792L4.75469 14.3447L2.73052 16.1311C2.38445 16.3622 1.97135 16.4572 1.56463 16.3995C1.15791 16.3417 0.783919 16.1349 0.509141 15.8157L0.417839 15.7058C0.271291 15.5326 0.159218 15.3305 0.0881792 15.1114C0.0171405 14.8923 -0.0114361 14.6606 0.00412296 14.4298C0.019682 14.199 0.079064 13.9738 0.178792 13.7673C0.27852 13.5608 0.416591 13.3772 0.584922 13.2273L5.95348 8.42048V1.82338C5.95685 1.52238 6.07407 1.23505 6.27943 1.02436C6.4848 0.813662 6.76157 0.696784 7.0491 0.699334H8.89706C9.18459 0.696784 9.46136 0.813662 9.66673 1.02436C9.8721 1.23505 9.98931 1.52238 9.99268 1.82338V4.80842L14.8636 0.447953C15.0662 0.267342 15.3063 0.139007 15.5648 0.0732698C15.8407 -0.0113312 16.1322 -0.0228682 16.4133 0.0396957C16.6945 0.10226 16.9563 0.236964 17.1754 0.431704L31.4185 13.2541C31.5863 13.4044 31.7238 13.5882 31.8229 13.7948C31.9221 14.0013 31.981 14.2265 31.9961 14.4572C32.0112 14.6878 31.9823 14.9193 31.911 15.1381C31.8398 15.3569 31.7276 15.5587 31.581 15.7316Z" fill="black"/>
</svg>
