<svg width="25" height="25" viewBox="0 0 25 25" fill="none" xmlns="http://www.w3.org/2000/svg">
<path d="M15.2764 25V21.9751C13.31 21.5445 11.4025 20.947 9.58413 20.1922C6.97773 19.0865 4.58938 17.5497 2.88515 15.5604C2.65266 15.2895 2.43462 15.0076 2.22883 14.7247C1.4153 13.5909 0.818998 12.3594 0.461195 11.0742C0.11605 9.8233 -0.0364517 8.54128 0.00732899 7.25869C0.0261037 6.62859 0.0836536 5.9997 0.179754 5.37445C0.277647 4.75159 0.410024 4.13611 0.572437 3.53168C0.655868 3.22854 0.74375 2.92633 0.842755 2.62688C0.94176 2.32742 1.04521 2.0289 1.15868 1.73313C1.27215 1.43736 1.39229 1.14528 1.52244 0.855969C1.65259 0.566653 1.7872 0.280102 1.94071 0C1.82947 0.293923 1.74159 0.591531 1.65816 0.889139C1.57473 1.18675 1.50019 1.48896 1.43567 1.79026C1.37115 2.09155 1.31219 2.39376 1.26214 2.6969C1.21208 3.00004 1.17092 3.30225 1.13532 3.60539C1.06969 4.21166 1.03298 4.81886 1.03298 5.42329C1.032 6.02523 1.06913 6.6268 1.14422 7.22552C1.28359 8.40384 1.60318 9.5627 2.09534 10.6743C2.12871 10.7461 2.16097 10.818 2.19545 10.8899C2.91131 12.4204 4.04071 13.7949 5.49711 14.908L5.68511 15.0499C5.7474 15.0969 5.80858 15.1421 5.87533 15.1891L6.26579 15.4581C6.53722 15.6286 6.80197 15.8018 7.08675 15.9557L7.29588 16.0754C7.33037 16.0957 7.36597 16.1141 7.40713 16.1326L7.48277 16.1722L7.62405 16.2468C7.73529 16.3021 7.83652 16.3555 7.94331 16.4081C7.94331 16.4081 7.94331 16.4081 7.94887 16.4081C10.1737 17.5073 12.6956 18.1292 15.2486 18.4812H15.2697H15.2853V15.7004L20.1376 18.0269L25 20.3525L20.1376 22.6772L15.2764 25Z" fill="#25D366"/>
</svg>
