<svg width="130" height="130" viewBox="0 0 130 130" fill="none" xmlns="http://www.w3.org/2000/svg">
<path d="M65.01 7.62648e-07C52.1542 -0.00196811 39.5865 3.80829 28.8962 10.9489C18.2059 18.0896 9.87319 28.2399 4.95167 40.1164C0.030157 51.9928 -1.25906 65.0619 1.24704 77.6711C3.75315 90.2802 9.94203 101.863 19.031 110.955C28.1201 120.047 39.701 126.239 52.3094 128.749C64.9178 131.259 77.9873 129.974 89.8652 125.056C101.743 120.138 111.896 111.808 119.04 101.12C126.184 90.4322 129.998 77.8657 130 65.0099C130.001 47.7713 123.155 31.238 110.968 19.0466C98.7798 6.85511 82.2486 0.00396089 65.01 7.62648e-07Z" fill="url(#paint0_linear_3_9)"/>
<path d="M65.01 6.70505C53.4765 6.70406 42.2018 10.1234 32.6118 16.5306C23.0219 22.9379 15.5474 32.0452 11.1337 42.7007C6.72007 53.3562 5.5655 65.0813 7.81605 76.393C10.0666 87.7047 15.6212 98.095 23.7772 106.25C31.9333 114.404 42.3245 119.957 53.6366 122.206C64.9487 124.454 76.6736 123.298 87.3284 118.882C97.9832 114.467 107.089 106.991 113.495 97.3997C119.9 87.8087 123.318 76.5334 123.315 64.9999C123.314 57.3439 121.806 49.7629 118.875 42.6899C115.945 35.6169 111.65 29.1903 106.236 23.7772C100.822 18.364 94.3943 14.0702 87.3207 11.141C80.2472 8.21172 72.666 6.70439 65.01 6.70505Z" fill="url(#paint1_radial_3_9)"/>
<g style="mix-blend-mode:multiply">
<path d="M65.01 6.70505C53.4765 6.70406 42.2018 10.1234 32.6118 16.5306C23.0219 22.9379 15.5474 32.0452 11.1337 42.7007C6.72007 53.3562 5.5655 65.0813 7.81605 76.393C10.0666 87.7047 15.6212 98.095 23.7772 106.25C31.9333 114.404 42.3245 119.957 53.6366 122.206C64.9487 124.454 76.6736 123.298 87.3284 118.882C97.9832 114.467 107.089 106.991 113.495 97.3997C119.9 87.8086 123.318 76.5334 123.315 64.9999C123.314 57.3439 121.806 49.7629 118.875 42.6899C115.945 35.6169 111.65 29.1903 106.236 23.7772C100.822 18.364 94.3943 14.0702 87.3207 11.141C80.2472 8.21172 72.666 6.70439 65.01 6.70505Z" fill="#95EF7F"/>
</g>
<path d="M20.3841 47.6673L45.1038 76.9317L90.2623 44.815L49.2553 81.8498L74.8411 112.14L104.344 33.0724L20.3841 47.6673Z" fill="#F8F8F8"/>
<defs>
<linearGradient id="paint0_linear_3_9" x1="19.0475" y1="19.04" x2="110.967" y2="110.957" gradientUnits="userSpaceOnUse">
<stop stop-color="#7CE9FB"/>
<stop offset="0.14" stop-color="#35AB96"/>
<stop offset="0.34" stop-color="#49AAC7"/>
<stop offset="0.505208" stop-color="#4093B8"/>
<stop offset="0.58" stop-color="#D2EEFD"/>
<stop offset="0.86" stop-color="#47B6A2"/>
<stop offset="1" stop-color="#ACE8DD"/>
</linearGradient>
<radialGradient id="paint1_radial_3_9" cx="0" cy="0" r="1" gradientUnits="userSpaceOnUse" gradientTransform="translate(126.904 -1.83933) rotate(-90) scale(216.014)">
<stop stop-color="#53C6D9"/>
<stop offset="0.14" stop-color="#50BFD4"/>
<stop offset="0.34" stop-color="#49AAC7"/>
<stop offset="0.58" stop-color="#3C88B1"/>
<stop offset="0.86" stop-color="#2C5A94"/>
<stop offset="1" stop-color="#224083"/>
</radialGradient>
</defs>
</svg>
